<?xml version="1.0" encoding="utf-8"?>
<!-- Generator: Adobe Illustrator 25.2.1, SVG Export Plug-In . SVG Version: 6.00 Build 0)  -->
<svg version="1.1" id="Camada_15" xmlns="http://www.w3.org/2000/svg" xmlns:xlink="http://www.w3.org/1999/xlink" x="0px" y="0px"
	 viewBox="0 0 1025.7 932.3" style="enable-background:new 0 0 1025.7 932.3;" xml:space="preserve">
<style type="text/css">
	.st0{fill:#FFFFFF;stroke:#FFFFFF;stroke-miterlimit:10;}
	.st1{fill:none;stroke:#FFFFFF;stroke-width:2;stroke-miterlimit:10;}
	.st2{fill:none;}
	.st3{fill:#FFFFFF;}
	.st4{fill:#FFFFFF;stroke:#FFFFFF;stroke-width:2;stroke-miterlimit:10;}
</style>
<g id="Camada_19">
	<g id="Camada_18">
		<path class="st0" d="M672.2,509.7l-5.7,5.5c0,0-3.4-13.3-22.7-7.7c-19.3,5.5-37.4,10-37.4,10v-1.1l42.3-18.1l11,3.4l10.2-1.9
			l6.8-3.3l-6.2,7.5l17.5-3l-10.2,6.6l14.8-1C692.6,506.5,681.3,514.1,672.2,509.7z"/>
		<path class="st0" d="M682.2,488.7"/>
		<polygon class="st0" points="646.2,506.9 637.6,519.6 648.9,532.9 667.5,514.3 654.5,503.6 		"/>
		<path class="st0" d="M654,535.1c-3.3,0-1.2-0.3-1.2-0.3l-43.5-9.7c0,0,10.9,9,25.6,11.2C634.8,536.2,657.2,535,654,535.1z"/>
		<path class="st0" d="M697.8,590.6c0,0-17.7,13.8-9.3,33.4l-2,0.8c0,0-9.5-10.1-4.3-19.4s14.8-14.8,14.8-14.8"/>
		<path class="st0" d="M736.5,622c0,0-6.3-3.4-7.3-3.3s-25,7.4-25,7.4l2.1,2.1C706.2,628.2,735.4,628.2,736.5,622z"/>
		<path class="st1" d="M746.4,661.6c0,0-30,0.5-53.1,19.2"/>
		<g id="Camada_16">
			<path class="st2" d="M361.7,576.5"/>
			<path class="st3" d="M369.5,562.4c0-0.1-0.1,0-0.1,0h-0.2c-0.1,0-0.2,0.1-0.3,0.1c-0.2,0.1-0.4,0.1-0.6,0.2
				c-0.4,0.2-0.8,0.4-1.1,0.6c-0.7,0.5-1.4,1-2,1.6c-1.2,1.2-2.2,2.6-3,4.1c-0.8,1.5-1.5,3.1-2,4.7c-0.5,1.7-0.9,3.3-1.2,5
				c0-1.8,0.2-3.5,0.6-5.2c0.4-1.7,1-3.4,1.9-4.9c0.8-1.6,2-3,3.3-4.1c0.7-0.6,1.4-1.1,2.2-1.5c0.4-0.2,0.8-0.3,1.2-0.5
				c0.2-0.1,0.4-0.1,0.6-0.2h0.3L369.5,562.4C369.5,562.4,369.6,562.4,369.5,562.4z"/>
			<path class="st4" d="M684.6,744.9c33.5,7.4,43.9-5.2,43.9-5.2s10.4-9.3,10.3-19.8s-8.7-16-8.7-16s9.8-3,16.8-21.8
				s-4.5-20.6-4.5-20.6l-5.9-4.3l-3.8-7c-6.2-6.1,11.4-12.2,11.4-12.2c32-8.1,18.1-32,18.1-32l-40.3-56.8c0,0-14.5-24.4,3.1-55.8
				s13.8-52.5,13.8-52.5C717.5,339.7,633,290.4,633,290.4l26.3,33l4.1,26.4l-5.2,13.2v7.1l-11.1,15.5c0,0-4.4,8.8-10.6-1.3
				s-15.5,3-15.5,3s4.1,5.1,4.1,6.1s-9.3,10.1-9.3,10.1l-16.5-1l-22.7,14.2l-6.2,2l-13.4,3c0,0,10.3,36.5-12.4,24.4v4.8
				c0,0,3.1,8.4,5.2,8.4s9.3,2,9.3,2l5.2,7.1v10.2c0,0,0.2-1.5-3,2.3s-5,6.3-5,6.3s-1.3,3.6-0.3,5.6s10.7,9.6,10.7,9.6h-11.2
				l5.3,11.9l-6.5-1.3l-4,1.3c0,0-1.6-16.4-5.7,4.4c-4.1,20.8-4.2,15-4.2,15l0.1-2.4l-5.2-2V540c0,1.5,6.2-1.5,0,1.5
				s-10.3,1.1-10.3,1.1s2.1,1,0,9.6s-6.4,4.4-6.4,4.4s1.2-5.9-1.9-2.8s-7.1,6.7-7.1,6.7l-6.3,0.4c0,0-8.3-10.2-3.1-10.2s1,1,5.2,0
				s6.2-6.1,6.2-6.1l0.1-4.6c0,0-8.3-2.6-6.2-5.1s1-7.6,1-7.6l-7.9,3.8l-4.2-1.3c0,0,2.3,5.7,0,7.2c-1.7,1.1-3.8,1.1-5.5,0
				c-1-0.5-5.7-9.8-6-7.2s4.9,8.7-0.2,8.7s-3.1-5.1-5.2,0s-3.3,5.2-9.9,2.1s-8.3-1.1-8.5-0.6s-0.7-2.4-2,0.6s-5.5,3-5.5,3l-5-6.6
				c0,0,0.2-5.9,0-3.2s-2.3,7.8-2.3,9.8s-8.3-2,0,2s12.4,1,12.4,4.1s-2.3,4.6-2.7,6.9s-8.7-1.8-8.7-1.8l8.3,11.2l0.7,6.6l-5.8,17.8
				l9.3,6.1l-3.1,6.1l-6.2,3l4.1,8.1l-9.3-10.2l1-6.1l-2.1-9.1v-4.1c0,0,2.1-2,2.1-4.1V575v-2.5l-6.2-1.5c0,0-3.1,4.9-2.6,7
				s2.6,1.1,0.5,2.1s-4.1-4.1-5.2,0c-0.6,2.1-0.9,4.2-0.9,6.4c0,0,1.1,2.2,0,3s2,3.9,2,3.9v1c0,3-5.2,2-5.2,2s-3.1-2-1.5-3
				s1.5-10.2,1.5-10.2l-2-4.7l-0.1-4.5l-6.2-7.1c0,0-1,0,1-1c1.3-0.7,2.4-1.7,3.1-3l-9.8,2.7c0.5-4.8-1.5-11.9-1.5-11.9l-9.3-3
				c0,0-15.5-41.6-61-34.5c0,0-23.8,3-21.7,44.7s23.8,60.9,43.4,75.1c6.2,4,28,7.3,44.4,10.8l-4.9,2.1c0,0,8.1,3.8,7.1,4.6
				s3.6,4.9,3.6,4.9v3.5c-0.5,2.6,7.8,16.8,7.8,16.8l-5.7,11.7c1.5,3.5,15,1.5,15,1.5l4.1,5.1c0,0,2.1,2.8,1.5,4.4
				c-0.5,1.4-1.4,2.7-2.6,3.7l-1,1c0,0-2.1,1,0,1h5.2c0,4.1,7.2,13.2,7.2,13.2s-4.1,6.1-5.2,8.1s-1-1-1,2s3.1,2,3.1,4.1s2.1-1,3.1,2
				s-2.1,3-3.1,5.1s-1-5.1-1,2c0.1,4.6,0.8,9.2,2.2,13.7c0,0-6.3,2.1-6.8,1.8s0.5,0.6,0,2.2s6.7-1.1,0,3.3s-9.2,4.9-9.2,4.9
				c-1.7,0.5,7.8,4.8,7.8,4.8l-1.1,8h-5.8l-4.5-5.1c0,0,1.2-5.1-1.5,2l-2.7,7.1c0,0-1,0-1,3v3l-8.3-8.6c1,2.7,1,0.2,0,3.5
				s1,3.3,0,5.3s-1,6.1-1,6.1c1.3,0.1,2.5,0.8,3.1,2c1,2,2.1,2,6.2,7.1c1.9,2.2,3.7,4.6,5.2,7.1c0,0-8.6-2-10,0s-0.3-4.1-1.4,2
				s3.9,8.8,3,10s-0.9-1.9-0.9,1.2s0.8,0.6,0.9,3.4s2.2,1.7,0.1,2.7s-9.3-3-10.3-2s-0.4-1-0.7,3s3.8,1.4,5.9,7.8l2.1,6.4h-2.1
				c0,0-5.2-4.1-7.2,3l-2.1,7.1l5.5,4.2c0,0,3.8,6.7,3.8,7.3c0.6,1.6,1.3,3.2,2.1,4.7h5.6c0,0,1.6,4.1-0.4,5.1s-10.3-3-10.3-3
				s-2.1-4.1-4.1-3s-2.1,4-2.1,8.1s9.3,2,6.2,4.1c-2,1.3-3.2,3.7-3.1,6.1v1c0,0,9.3-1-2.6,0s-12.9,7.1-12.9,9.1s-7.2,0.9-3.6,3.5
				c-0.6,3-2.3,5.6-4.8,7.2c-4,2.5-14.4-4.6-14.4-1.6s-5.2,3-5.2,1s-6.2-9.1-6.2-9.1s-1.3,7.5-2.7,7.8s-4.5-6.8-5.5-6.8
				s-11.4-3-10.3-1c0,0,1,4.1-2.1,4.1s-8.3-7.1-7.2-5.1s0,1-2.1,1s-13.4-6.1-13.4-4.1s-9.3-2-9.3-2s5.2,0-4.1,3s-13.4-4.1-13.4-4.1
				v-13.2c0,3.2-9.3-1.9-9.3-1.9c-3.1,2-5.2-3-6.2-2s4.1,3.8,0,4.4l-4.1,0.7l-11.4-9.2V869c0,0-2.1-1.5-3.1,0.5s-7.2,0-7.2,0l-2.1,2
				l-11.4-18.3l-12.4,2v-6.1h-2c-2.1,1-13.4-2-13.4-2l7.2-2c0-2-7.2-3.9-7.2-3.9s1,0.3,0-2.4c-0.7-2.2-1-4.5-1-6.8h-3.1
				c0,0-10.3-1-10.3-4.1s1-10.2,0-8.1s0,14.2-4.1,12.2c-1.8-0.9-5.2-5.1-8.5-9.6c-4.1-5.7-8-11.7-8-11.7l8.3-3l-3.1-3
				c-0.8,0.1-1.5,0.4-2.1,1c-1,1-3.1,0.2-3.1,0.2s0-0.2-1-0.2c-1.1,0.2-2.1,0.5-3.1,1l-2.1-1c-0.6,0-1-0.4-1-1v-3.3l1-4.8
				c0,0,1-1.3-1-0.2l-2.1,1.2l-1-1l-4.1-1l-1,2c0,0,0-3-1-3s-3.1-2-3.1-2c0-0.6,0.4-1,1-1s1-0.4,1-1l-2.1-0.2c0,0,2.1-0.9-1-0.9
				h-3.1l-2.1-3v-1.3c-1.2,0.8-2.7,1.3-4.1,1.3v-3.3l-2.1-8.9l-3.1-8.1H121l-2.1-1c0,0-2.1,6.1-2.1,1s2.1-7.1,2.1-7.1s0-2-4.1-3
				s-10.3-3-10.3-3l3.1-2l3.1-3l-3.1-2l-7.2-2l2.1-2c0,0-3.1-1-2.1-1.5s1-2.6,1-2.6c0.7-0.8,1.1-1.9,1-3c0-2,2.1,0,0-2s-9.3-3-9.3-3
				l2.1-5.1v-6.1c0,0-6.2-8.1-6.2-6.1s9.3-3,0,2s-9.3,3-9.3-3v-6.1l2.1-3v-5.1c-2.1,0-7.2-2-7.2-2l-5.2-12.2h3.1c0,0,3.1-1,2.1-4.1
				s-5.2-4.8-5.2-4.8l-2.1,0.7v-2.2l-1-2.9l-3.1-1h-2l-6.2-21.7l-7-12.8c-2.3-0.1-16.7-11.2-16.7-11.2c3.1-2,3.1-8.1,3.1-8.1l1-8.1
				l-4.1-4.1c0,0-1-7.8,0-6.4s2.1,3.4,4.1-1.7c1.2-2.9,1.6-6.1,1-9.1l-13.4-1l2.1-5.1c3.9,0,7.7-0.7,11.4-2l-3.1-3v-5.1l-2.3-2
				l-8-1.7c0,0-0.5-2.7-2.3-2.6s-6.5-2.1-6.5-2.1v-4.8l9.8-1.8l1.1-2.8l0.5-4.8c-3.7-0.6-7.8-1.6-7.8-1.6l9.4-13.2l-3.6-0.9
				l-3.4-0.8l-2.5-0.6l1.1-5.9l-4.6-9.5l-9.8-4.7l4-2.7c0,0-5.3-3.5,0-3.4s4.2-2,4.2-2l5.9-2.4c0,0,11-1.9,0-5.8s-14.1-7-14.1-6.5
				s9.2-5.4,9.2-5.4s6.3-3.6,0.6-5.9s-16.8-2.5-11.8-4.5s14.3-5,14.3-5l-2.6-1.5l0.7-2.7l2-11.8c0,0-3.2,0.9-3.2-0.2
				s-1.3-9.3-1.3-9.3l0.3-7.9c0,0,21.6-10.1,16-12.2s-16-15.2-16-15.2c-2.1-5.1-2.1-5.1-2.1-7.1s3.5-4,3.5-4s4.8-3.1,0.6-4.1
				s-5.2,0-4.1-1c0.9-0.8,1.9-1.6,2.9-2.3l3.3-4.8h6.2l4.2-8.1l0,0l3.1-1c1.4-1.7,2.4-3.8,2.8-6c0.3-3.1-9-3.1-9-3.1l3.1-7.1
				l4.1-6.1L28,334.5l7.5-4.7c-0.8-0.9-1.3-2.1-1.3-3.4c0-2-1-1,0-4.1s2.1-7.1,2.1-7.1l11.1-3.8l6-3.8l1.6-3.6v-3l-7.2-18.3l5.3-2.3
				l-0.3-2.8l0.6-4.1l9.8-4l5.2-7.1v-2c0-2,0-1-1-7.1c-0.6-3.4-0.9-6.7-1-10.1l10.3-6.1l3.1,6.1c0,0,8.3,1,8.3,0
				c-0.3-2-0.5-4.1-0.3-6.1c0.3-3-6.9-20.3-6.9-20.3s-0.3,1,2.4,0s15.1-8.1,15.1-8.1v-8.1c0,0,14.4,4,13.4,3s-6.2-1-6.7-3.1
				s10.9-9.1,10.9-9.1v-9.1c0,0,5.2-1,5.2-6.1s-6.2,7.1,0,8.1l6.2,1l-0.9-10.4l0.9-5.9l8.3-4.1c21.7,0,9.3,2,9.3,2l-3.1-25.4
				l20.7,11.2v-21.3h7.1c0.7-1.9,1.8-3.6,3.2-5.1l2.1-2l11.4-7.1c0,0-1,9.1,3.6,0l8.8-17.2h12.8c16.1-2,24.3,0,24.3,0l-14.4-10.2
				c0,0,1-2,5.2-3s8.3-7.1,8.3-7.1l3.1-3.1h18.7l6.3-7.6l6-7.6h26.4l7.7-23.3c-2.1,7.1,19,2.4,19,2.4l13.5-2.4l22.4-8.9L355,24
				c0,0,9.5,2.2,10.1,4.1s4.3,6.9,4.3,6.9l3.7-5.7c-0.2-0.3,7.8-8,7.8-8h13.7c0,0-22.1,11.4-1.2,8s2.9-8,7.7-6.7s19.7-8.8,19.7-8.8
				l2.8-1.1h7.6l4.7,5.7l11.7-11c0,0,0.8,1.6,6.5,5.5s32.4,0,32.4,0L496,2.6v4.8l9.4,1.4c0,0,1.2,11.7,4.2,11.4s26.1-8.6,26.1-8.6
				l7.2,2.5l5.2-6.7h17.8l-2.2,9.6l6.7-6.9l12.5,1.6l4.9,5.3l5.8-2.8c0,0,6.5-7.3,7.2-1.4l0.7,5.9c0,0-3.9-3.5,8.4-1.8
				s23.6,3.8,23.6,3.8s-9.9,6.6-1.3,8.4s24.5-4.6,24.5-4.6l0.5,8.9c0,0-1.1-3.9,5.7-2.7c6.8,1.2,20.6-1.6,20.6-1.6v8.5
				c0,0,1.3-3.3,1.5,4.1s-4,10.5,0.2,7.4s10-9.6,10-9.6l7.5-4.6c0,0-0.6,5.5-0.8,6.8s4.9,3.4,4.9,3.4s7,2.3,6.6,2.2s0.8-2.8,2.8-5.5
				s7.2-3.7,7.2-3.7l4.5,5.1v6.9c0,0,4.8-0.8,2.7,4.8s-1.5,11.7,0.8,11.1s-1.8-6.6,2.3-7.6s12.4-1,12.4-1s16.5-31.5,10.3,0
				s5.2,19.3,5.2,19.3l20.7-12.2v20.7c0,2.6,9.3-2.4,9.3-2.4l7.6,11.6l1.7,2.6l7.2-4.1l3.1,8.1c0,0-6.2,5.8,0,3.9s16.5-11,16.5-8
				v12.4c1.6,0,3.1,0.7,4.1,1.9c2.1,2,6.2,2,6.2,2l15.5,9.1c0,0-5.2,6.1-5.2,10.1v7.1c0,0,5.2-7.1,18.6,1l13.4,8.1
				c0,0-9.3,11.6,0,9.9l9.3-1.8c0,0-16.5,20.6,0,20.4l16.5-0.1c0,0-4.1,12.9,0,12.6l4.1-0.4l8.3,5.1l8.3,12.2c0,0-31-11.2-4.1,3.1
				l26.9,14.2l0,0l-9.3,8.1c0,0-5.2,12.2,4.1,12.2h9.3v7.7l7.2,3.5c0,0-6.2,10.6,0,10.4l6.2-0.2l1.9,9.9c0,0,17-10.4,6,5l-11,15.5
				l0,0l16.5,3v6.2c0,0-7.2,13,0,14.5l7.2,1.6c0,0-13.4,28,0,27.7l13.4-0.3l5.2,9.1l-6.2,16.2c0,0,20.7-4.1,15.5,6.1
				s2.1,7.1-5.2,10.1s-15.5-4.1-7.2,3s18.6-8.1,8.3,7.1s5,19.5,5,19.5l-5.5,2.2l5.5,14.6c0,0-16.3-2.1-5.5,10.2s16,3.2,10.8,12.4
				l-5.2,9.1l-5.7,3.3l12.9,6.6c-9.2,9.4-12.3,1.3-9.2,9.4c3.1,8.1,7.2,1,3.1,8.1s-1-5.1-4.1,7.1c-3.1,12.2,8.3,7.1-3.1,12.2
				l-11.4,5.1l11.9,14.7l-6.3,5.1l12,12.8l-12.4,5c0,5.1,19.5,13.4,19.6,16.3s-6.4,8-6.4,8l-2.7-0.6l-12.5-2.4h-8.3v17.3
				c-7.2,5.1-9.3,6.2-9.3,6.2l11.2,16.8l-10.1,4.3l-18.6-7.1l8.5,13.5c-1.3,3.7-2.1,25.2-2.1,25.2l-6.7,6.8c0,0,0.3,0.1,0.3,4.2
				s10.1,20.7,10.1,20.7c-9.1-0.4-26,0-26,0c1.4,6.7,7.6,3.7,1.4,6.7s-25.5,9-21.5,8.6s12.1,3.6,13.2,4.1s1,4.3,1,4.3
				c-7.1,8.4-8.1,6.4-7.1,8.4s-14,2.3-14,2.3s9.8,2.8,0.5,5.8s-12.4,7.1-10.3,9.1s4,8.9,4,8.9L898,758.8l12.4,10.6h-21.6l-9.4,14.7
				v6.1c0,5.1-7.2,7.1-7.2,7.1l-13.4,1c0,3-2.1-3,0,3c1.5,3.9,2.2,8,2.1,12.2v3l0,0c-5.1,0.7-10.3,1-15.5,1c0,0-13.4-6.1-13.4,0v9.1
				l-3.1,2l-8.7,1.8c0,0-2.5-4.9,0,4.3s-7.8,2-7.8,7.1s6.8,5.8-5.4,5.4s-13.2,9.8-13.2,9.8l-1,15.2l-17.6-4c0,0-6.2-12.2-4.1,0
				s-22.7,3.1-22.7,3.1l-9.4,18.3l-17.5-1.5l-9.3,5.1l-6.7,12.5l6.7,8.6l-11.9-3.5l-5.7-3l-3.9-4.1l-4,0.5c0,0,4.5,6.6,0,6.6h-32.4
				l1.1,3.4c0,0,13.4,3.7,1,3.7s-12.4-4.1-12.4,0v4.1l-4.2,1l-10-7.8l-3.3,10.8h-10.5l-7.4,4.4l-1.7-16.6c0,0-5.2,7.1-5.2,10.2
				s-12.3,6.4-12.3,6.4l2-7.4c-32.1-24.2-26.9-25.2-40.4-55.4s13.8-92.5,13.8-92.5s15.2,10.8,72.1,26s73.1-21.2,73.1-21.2l2.2-33.6"
				/>
			<path class="st1" d="M546.6,856.2"/>
			<path class="st0" d="M704.1,445.3l-4.2,15.5c0,0-1.1,2.3-5.2,3.1c-3.8,0.7-10.6-0.1-12.3-0.9c-7.6-3.3-30.3-7.5-30.3-7.5
				s-19-6.1-52.4,7.3s8.3-12.4,8.3-12.4s32-18.9,57.2-13.1S704.1,445.3,704.1,445.3z"/>
			<path class="st3" d="M736.9,702.5c-4.7,1.8-9.6,3.3-14.5,4.4c-2.5,0.6-5,1-7.4,1.5s-5,0.7-7.5,1c-1.3,0.1-2.5,0.2-3.8,0.3
				s-2.5,0.2-3.8,0.2c-2.5,0-5.1,0-7.6-0.2c-5.1-0.2-10.1-1.4-14.8-3.4c4.9,0.8,9.9,1.2,14.9,1.1c5,0,9.9-0.4,14.8-0.9
				s9.9-1.1,14.9-1.8L736.9,702.5z"/>
			<path class="st3" d="M334.5,535.2c-0.1,0-0.2,0.2-0.3,0.1c0.1-0.1,0.2-0.2,0.3-0.2l0.6-0.4c0.4-0.2,0.8-0.5,1.2-0.7
				c0.8-0.4,1.6-0.8,2.5-1.2c1.7-0.7,3.4-1.3,5.2-1.8c3.6-1,7.3-1.3,11.1-1.1c3.7,0.3,7.4,1.3,10.8,3c3.4,1.7,6.4,3.9,9.1,6.6
				c5.3,5.4,9,12,12,18.7c0.7,1.7,1.4,3.4,2,5.2l0.9,2.6c0.3,0.9,0.6,1.8,0.7,2.8c0.7,3.9-0.1,7.7-0.8,11.3v-0.4c0,0,0,0.1,0.1,0.2
				c0,0.1,0.1,0.2,0.2,0.3c0.1,0.2,0.3,0.4,0.5,0.5c0.4,0.4,0.8,0.7,1.2,0.9c0.5,0.3,0.9,0.5,1.4,0.7c0.2,0.1,0.5,0.2,0.8,0.3
				c0.3,0.1,0.5,0.2,0.9,0.3c1.1,0.6,2.1,1.3,3,2.3c0.8,0.8,1.6,1.7,2.4,2.7c2.9,3.7,5.4,7.6,7.7,11.7v-0.1c0.1,0.2,0.2,0.4,0.3,0.7
				l0.2,0.6c0.1,0.4,0.2,0.8,0.4,1.1c0.2,0.8,0.4,1.5,0.6,2.3c0.3,1.5,0.5,3.1,0.6,4.7c0.1,1.6-0.1,3.2-0.5,4.8
				c-0.4,1.6-1.4,3-2.7,4.1c-1.4,0.9-3,1.4-4.6,1.4c-1.6,0-3.1-0.1-4.7-0.2c-1.6-0.1-3.1-0.4-4.6-0.9c-0.7-0.3-1.5-0.6-2.1-1
				c-0.3-0.2-0.6-0.4-0.9-0.7c-0.1-0.1-0.3-0.3-0.4-0.4l-0.2-0.2c-0.1-0.1-0.2-0.1-0.2,0c0.1-0.1,0.2,0,0.3,0l0.2,0.2
				c0.1,0.1,0.3,0.3,0.4,0.4c0.3,0.3,0.6,0.5,1,0.6c0.7,0.3,1.4,0.6,2.1,0.8c1.5,0.4,3,0.6,4.5,0.7c1.5,0.1,3.1,0.1,4.6,0
				c1.4-0.1,2.8-0.6,4-1.5c1.1-0.9,1.9-2.2,2.2-3.6c0.3-1.4,0.5-2.9,0.4-4.4c-0.1-1.5-0.3-3-0.7-4.5c-0.2-0.7-0.4-1.5-0.6-2.2
				c-0.1-0.4-0.2-0.7-0.4-1l-0.2-0.5c0-0.1-0.1-0.2-0.2-0.4l0,0v-0.1c-1.2-2-2.4-3.9-3.7-5.8s-2.6-3.8-4-5.5
				c-0.7-0.9-1.5-1.7-2.3-2.5c-0.7-0.8-1.6-1.4-2.5-1.9c-0.2-0.1-0.5-0.2-0.8-0.3s-0.6-0.2-0.9-0.3c-0.6-0.2-1.1-0.5-1.7-0.8
				c-0.6-0.3-1.1-0.7-1.5-1.2c-0.2-0.2-0.5-0.5-0.7-0.8c-0.1-0.1-0.2-0.3-0.3-0.5c-0.1-0.2-0.2-0.4-0.3-0.6v-0.2v-0.2
				c0.7-3.6,1.3-7.2,0.7-10.6c-0.1-0.9-0.4-1.7-0.6-2.5l-0.9-2.6c-0.6-1.7-1.2-3.4-2-5.1c-2.8-6.7-6.4-13.1-11.4-18.3
				c-2.5-2.6-5.3-4.8-8.5-6.5c-3.2-1.7-6.7-2.7-10.3-3.1c-3.6-0.4-7.3-0.2-10.8,0.6c-1.8,0.4-3.5,0.9-5.2,1.5
				c-0.9,0.3-1.7,0.7-2.5,1c-0.4,0.2-0.8,0.4-1.2,0.6L334.5,535.2c-0.1,0-0.2,0-0.2,0.1L334.5,535.2z"/>
			<path class="st3" d="M369.6,549.6c-4,1.3-7.8,3.2-11.3,5.7c-3.3,2.3-5.8,5.6-7.2,9.4c-0.6,1.9-1,3.9-1,5.9
				c-0.1,2.1,0.1,4.1,0.4,6.1c0.8,4.2,1.9,8.3,3.5,12.3c-2.6-3.6-4.6-7.6-5.7-11.8c-0.3-1.1-0.5-2.2-0.7-3.3
				c-0.2-1.1-0.3-2.3-0.3-3.4c0-2.3,0.4-4.6,1.1-6.8c0.8-2.2,2-4.2,3.5-6c1.5-1.7,3.3-3.2,5.3-4.4
				C360.8,551.1,365.1,549.8,369.6,549.6z"/>
		</g>
	</g>
</g>
</svg>
