<svg width="24" height="24" viewBox="0 0 25 25" fill="none" xmlns="http://www.w3.org/2000/svg">
<path d="M22.4892 17.6466V20.6466C22.4903 20.9251 22.4333 21.2008 22.3217 21.4559C22.2101 21.7111 22.0465 21.9402 21.8413 22.1285C21.6361 22.3167 21.3938 22.4601 21.13 22.5493C20.8661 22.6385 20.5866 22.6717 20.3092 22.6466C17.232 22.3122 14.2762 21.2607 11.6792 19.5766C9.26304 18.0413 7.21454 15.9928 5.67921 13.5766C3.98919 10.9678 2.93745 7.99759 2.60921 4.9066C2.58422 4.63007 2.61708 4.35136 2.70571 4.08822C2.79433 3.82509 2.93678 3.58329 3.12397 3.37822C3.31117 3.17315 3.53901 3.00931 3.793 2.89712C4.04699 2.78493 4.32155 2.72686 4.59921 2.7266H7.59921C8.08451 2.72182 8.555 2.89368 8.92297 3.21013C9.29094 3.52659 9.53129 3.96605 9.59921 4.4466C9.72583 5.40666 9.96066 6.34933 10.2992 7.2566C10.4338 7.61452 10.4629 8.00351 10.3831 8.37748C10.3034 8.75144 10.1181 9.09471 9.84921 9.3666L8.57921 10.6366C10.0028 13.1401 12.0757 15.213 14.5792 16.6366L15.8492 15.3666C16.1211 15.0977 16.4644 14.9124 16.8383 14.8327C17.2123 14.7529 17.6013 14.7821 17.9592 14.9166C18.8665 15.2551 19.8091 15.49 20.7692 15.6166C21.255 15.6851 21.6986 15.9298 22.0157 16.3041C22.3329 16.6784 22.5014 17.1562 22.4892 17.6466Z" stroke="white" stroke-width="2" stroke-linecap="round" stroke-linejoin="round"/>
</svg>
