<svg width="64" height="64" viewBox="0 0 64 64" fill="none" xmlns="http://www.w3.org/2000/svg">
<path d="M32 5.33331C17.544 5.33331 5.33334 17.544 5.33334 32C5.33334 46.456 17.544 58.6666 32 58.6666C46.456 58.6666 58.6667 46.456 58.6667 32C58.6667 17.544 46.456 5.33331 32 5.33331ZM32 18.6666C36.6053 18.6666 40 22.0586 40 26.6666C40 31.2746 36.6053 34.6666 32 34.6666C27.3973 34.6666 24 31.2746 24 26.6666C24 22.0586 27.3973 18.6666 32 18.6666ZM18.384 44.7253C20.776 41.2053 24.7653 38.8586 29.3333 38.8586H34.6667C39.2373 38.8586 43.224 41.2053 45.616 44.7253C42.208 48.3733 37.3733 50.6666 32 50.6666C26.6267 50.6666 21.792 48.3733 18.384 44.7253Z" fill="#E47C97"/>
</svg>
