<svg width="64" height="64" viewBox="0 0 64 64" fill="none" xmlns="http://www.w3.org/2000/svg">
<rect width="64" height="64" rx="4" fill="url(#paint0_linear_1_21)"/>
<g clip-path="url(#clip0_1_21)">
<path d="M38.3634 33.9134L38.1358 34.155C38.1358 34.155 38 33.5707 37.2293 33.8167C36.4586 34.0584 35.7358 34.2561 35.7358 34.2561V34.2077L37.425 33.4125L37.8642 33.5619L38.2716 33.4784L38.5431 33.3334L38.2955 33.6629L38.9944 33.5311L38.587 33.8211L39.1781 33.7772C39.1781 33.7728 38.7268 34.1067 38.3634 33.9134Z" fill="white" stroke="white" stroke-miterlimit="10"/>
<path d="M37.3251 33.7904L36.9817 34.3483L37.4329 34.9327L38.1757 34.1155L37.6566 33.6454L37.3251 33.7904Z" fill="white" stroke="white" stroke-miterlimit="10"/>
<path d="M37.6366 35.0293C37.5048 35.0293 37.5887 35.0161 37.5887 35.0161L35.8516 34.59C35.8516 34.59 36.2868 34.9854 36.8739 35.082C36.8699 35.0776 37.7644 35.0249 37.6366 35.0293Z" fill="white" stroke="white" stroke-miterlimit="10"/>
<path d="M39.3857 37.4677C39.3857 37.4677 38.6789 38.0739 39.0143 38.9351L38.9345 38.9702C38.9345 38.9702 38.5551 38.5265 38.7628 38.1179C38.9704 37.7093 39.3538 37.4677 39.3538 37.4677" fill="white"/>
<path d="M39.3857 37.4677C39.3857 37.4677 38.6789 38.0739 39.0143 38.9351L38.9345 38.9702C38.9345 38.9702 38.5551 38.5265 38.7628 38.1179C38.9704 37.7093 39.3538 37.4677 39.3538 37.4677" stroke="white" stroke-miterlimit="10"/>
<path d="M40.9312 38.8472C40.9312 38.8472 40.6796 38.6979 40.6396 38.7022C40.5997 38.7066 39.6413 39.0274 39.6413 39.0274L39.7252 39.1196C39.7212 39.1196 40.8872 39.1196 40.9312 38.8472Z" fill="white" stroke="white" stroke-miterlimit="10"/>
<path d="M41.3265 40.587C41.3265 40.587 40.1285 40.609 39.206 41.4306" stroke="white" stroke-width="2" stroke-miterlimit="10"/>
<path d="M26.2755 36.2288C26.2755 36.2244 26.2715 36.2288 26.2715 36.2288H26.2635C26.2595 36.2288 26.2555 36.2332 26.2515 36.2332C26.2436 36.2375 26.2356 36.2375 26.2276 36.2419C26.2116 36.2507 26.1956 36.2595 26.1837 36.2683C26.1557 36.2903 26.1278 36.3122 26.1038 36.3386C26.0559 36.3913 26.0159 36.4528 25.984 36.5187C25.952 36.5846 25.9241 36.6549 25.9041 36.7252C25.8842 36.7999 25.8682 36.8702 25.8562 36.9449C25.8562 36.8658 25.8642 36.7911 25.8802 36.7164C25.8961 36.6417 25.9201 36.5671 25.956 36.5012C25.988 36.4309 26.0359 36.3693 26.0878 36.321C26.1158 36.2947 26.1437 36.2727 26.1757 36.2551C26.1916 36.2463 26.2076 36.2419 26.2236 36.2332C26.2316 36.2288 26.2396 36.2288 26.2476 36.2244H26.2595L26.2755 36.2288C26.2795 36.2288 26.2755 36.2288 26.2755 36.2288Z" fill="white"/>
<path d="M38.8586 44.2467C40.1964 44.5719 40.6117 44.0183 40.6117 44.0183C40.6117 44.0183 41.027 43.6097 41.023 43.1484C41.019 42.6871 40.6756 42.4454 40.6756 42.4454C40.6756 42.4454 41.0669 42.3136 41.3465 41.4877C41.626 40.6617 41.1668 40.5826 41.1668 40.5826L40.9312 40.3937L40.7794 40.0862C40.5318 39.8182 41.2346 39.5502 41.2346 39.5502C42.5125 39.1943 41.9574 38.1443 41.9574 38.1443L40.3481 35.6488C40.3481 35.6488 39.7691 34.5768 40.4719 33.1973C41.1747 31.8177 41.023 30.8907 41.023 30.8907C40.1724 26.4445 36.798 24.2786 36.798 24.2786L37.8483 25.7284L38.012 26.8883L37.8043 27.4682V27.7802L37.3611 28.4611C37.3611 28.4611 37.1854 28.8478 36.9378 28.404C36.6902 27.9603 36.3188 28.5358 36.3188 28.5358C36.3188 28.5358 36.4825 28.7599 36.4825 28.8038C36.4825 28.8478 36.1112 29.2476 36.1112 29.2476L35.4522 29.2036L34.5458 29.8275L34.2982 29.9154L33.7631 30.0472C33.7631 30.0472 34.1744 31.6508 33.2679 31.1192V31.33C33.2679 31.33 33.3917 31.6991 33.4755 31.6991C33.5594 31.6991 33.8469 31.787 33.8469 31.787L34.0546 32.0989V32.547C34.0546 32.547 34.0626 32.4811 33.9348 32.6481C33.807 32.815 33.7351 32.9249 33.7351 32.9249C33.7351 32.9249 33.6832 33.083 33.7231 33.1709C33.7631 33.2588 34.1504 33.5927 34.1504 33.5927H33.7032L33.9148 34.1155L33.6552 34.0584L33.4955 34.1155C33.4955 34.1155 33.4316 33.395 33.2679 34.3088C33.1041 35.2226 33.1002 34.9678 33.1002 34.9678L33.1041 34.8624L32.8965 34.7745V35.2446C32.8965 35.3105 33.1441 35.1787 32.8965 35.3105C32.6489 35.4423 32.4852 35.3588 32.4852 35.3588C32.4852 35.3588 32.569 35.4028 32.4852 35.7806C32.4013 36.1584 32.2296 35.9739 32.2296 35.9739C32.2296 35.9739 32.2775 35.7147 32.1537 35.8509C32.0299 35.9871 31.8702 36.1453 31.8702 36.1453L31.6186 36.1628C31.6186 36.1628 31.2872 35.7147 31.4948 35.7147C31.7025 35.7147 31.5348 35.7586 31.7025 35.7147C31.8702 35.6708 31.9501 35.4467 31.9501 35.4467L31.9541 35.2446C31.9541 35.2446 31.6226 35.1304 31.7065 35.0205C31.7903 34.9107 31.7464 34.6866 31.7464 34.6866L31.4309 34.8536L31.2632 34.7965C31.2632 34.7965 31.3551 35.0469 31.2632 35.1128C31.1953 35.1611 31.1115 35.1611 31.0436 35.1128C31.0036 35.0908 30.8159 34.6822 30.804 34.7965C30.792 34.9107 30.9996 35.1787 30.796 35.1787C30.5923 35.1787 30.6722 34.9546 30.5883 35.1787C30.5045 35.4028 30.4565 35.4072 30.193 35.271C29.9294 35.1348 29.8615 35.2226 29.8535 35.2446C29.8456 35.2666 29.8256 35.1392 29.7737 35.271C29.7218 35.4028 29.554 35.4028 29.554 35.4028L29.3544 35.1128C29.3544 35.1128 29.3624 34.8536 29.3544 34.9722C29.3464 35.0908 29.2625 35.3149 29.2625 35.4028C29.2625 35.4906 28.9311 35.3149 29.2625 35.4906C29.594 35.6664 29.7577 35.5346 29.7577 35.6708C29.7577 35.807 29.6659 35.8729 29.6499 35.9739C29.6339 36.075 29.3025 35.8948 29.3025 35.8948L29.6339 36.3869L29.6619 36.6769L29.4302 37.4589L29.8016 37.7269L29.6778 37.9949L29.4302 38.1267L29.594 38.4826L29.2226 38.0344L29.2625 37.7664L29.1787 37.3666V37.1865C29.1787 37.1865 29.2625 37.0986 29.2625 37.0064V36.7823V36.6725L29.0149 36.6066C29.0149 36.6066 28.8911 36.8218 28.9111 36.9141C28.9311 37.0064 29.0149 36.9624 28.9311 37.0064C28.8472 37.0503 28.7673 36.8262 28.7234 37.0064C28.6995 37.0986 28.6875 37.1909 28.6875 37.2875C28.6875 37.2875 28.7314 37.3842 28.6875 37.4193C28.6436 37.4545 28.7673 37.5907 28.7673 37.5907V37.6346C28.7673 37.7664 28.5597 37.7225 28.5597 37.7225C28.5597 37.7225 28.4359 37.6346 28.4998 37.5907C28.5637 37.5468 28.5597 37.1426 28.5597 37.1426L28.4798 36.9361L28.4758 36.7384L28.2282 36.4264C28.2282 36.4264 28.1883 36.4264 28.2682 36.3825C28.3201 36.3517 28.364 36.3078 28.392 36.2507L28.0006 36.3693C28.0206 36.1584 27.9407 35.8465 27.9407 35.8465L27.5693 35.7147C27.5693 35.7147 26.9504 33.887 25.1334 34.199C25.1334 34.199 24.183 34.3308 24.2668 36.1628C24.3507 37.9949 25.2172 38.8384 25.9999 39.4623C26.2475 39.638 27.1181 39.783 27.773 39.9368L27.5773 40.029C27.5773 40.029 27.9008 40.196 27.8609 40.2311C27.8209 40.2663 28.0046 40.4464 28.0046 40.4464V40.6002C27.9846 40.7144 28.3161 41.3383 28.3161 41.3383L28.0885 41.8523C28.1484 42.0061 28.6875 41.9182 28.6875 41.9182L28.8512 42.1423C28.8512 42.1423 28.9351 42.2653 28.9111 42.3356C28.8911 42.3971 28.8552 42.4542 28.8073 42.4982L28.7673 42.5421C28.7673 42.5421 28.6835 42.586 28.7673 42.586H28.975C28.975 42.7662 29.2625 43.166 29.2625 43.166C29.2625 43.166 29.0988 43.434 29.0549 43.5218C29.0109 43.6097 29.0149 43.4779 29.0149 43.6097C29.0149 43.7415 29.1387 43.6976 29.1387 43.7898C29.1387 43.8821 29.2226 43.7459 29.2625 43.8777C29.3025 44.0095 29.1787 44.0095 29.1387 44.1018C29.0988 44.194 29.0988 43.8777 29.0988 44.1896C29.1028 44.3917 29.1307 44.5938 29.1867 44.7915C29.1867 44.7915 28.9351 44.8838 28.9151 44.8706C28.8951 44.8574 28.9351 44.897 28.9151 44.9673C28.8951 45.0376 29.1827 44.9189 28.9151 45.1123C28.6475 45.3056 28.5477 45.3275 28.5477 45.3275C28.4798 45.3495 28.8592 45.5384 28.8592 45.5384L28.8153 45.8899H28.5837L28.404 45.6658C28.404 45.6658 28.4519 45.4418 28.3441 45.7537L28.2362 46.0656C28.2362 46.0656 28.1963 46.0656 28.1963 46.1974V46.3292L27.8648 45.9514C27.9048 46.07 27.9048 45.9602 27.8648 46.1052C27.8249 46.2502 27.9048 46.2502 27.8648 46.338C27.8249 46.4259 27.8249 46.606 27.8249 46.606C27.8768 46.6104 27.9247 46.6412 27.9487 46.6939C27.9886 46.7818 28.0326 46.7818 28.1963 47.0058C28.2722 47.1025 28.3441 47.2079 28.404 47.3178C28.404 47.3178 28.0605 47.2299 28.0046 47.3178C27.9487 47.4056 27.9926 47.1376 27.9487 47.4056C27.9048 47.6736 28.1044 47.7922 28.0685 47.845C28.0326 47.8977 28.0326 47.7615 28.0326 47.8977C28.0326 48.0339 28.0645 47.9241 28.0685 48.0471C28.0725 48.1701 28.1564 48.1218 28.0725 48.1657C27.9886 48.2096 27.7011 48.0339 27.6612 48.0778C27.6213 48.1218 27.6452 48.0339 27.6332 48.2096C27.6213 48.3854 27.785 48.2711 27.8688 48.5523L27.9527 48.8335H27.8688C27.8688 48.8335 27.6612 48.6534 27.5813 48.9653L27.4975 49.2772L27.7171 49.4618C27.7171 49.4618 27.8688 49.7561 27.8688 49.7825C27.8928 49.8528 27.9208 49.9231 27.9527 49.989H28.1763C28.1763 49.989 28.2402 50.1691 28.1604 50.213C28.0805 50.257 27.749 50.0812 27.749 50.0812C27.749 50.0812 27.6652 49.9011 27.5853 49.9494C27.5054 49.9978 27.5015 50.1252 27.5015 50.3053C27.5015 50.4854 27.8728 50.3932 27.749 50.4854C27.6692 50.5425 27.6213 50.648 27.6252 50.7534V50.7974C27.6252 50.7974 27.9966 50.7534 27.5214 50.7974C27.0462 50.8413 27.0063 51.1093 27.0063 51.1972C27.0063 51.285 26.7188 51.2367 26.8625 51.3509C26.8386 51.4827 26.7707 51.597 26.6708 51.6673C26.5111 51.7771 26.0958 51.4652 26.0958 51.597C26.0958 51.7288 25.8881 51.7288 25.8881 51.6409C25.8881 51.553 25.6405 51.2411 25.6405 51.2411C25.6405 51.2411 25.5886 51.5706 25.5327 51.5838C25.4768 51.597 25.353 51.285 25.3131 51.285C25.2731 51.285 24.8578 51.1532 24.9018 51.2411C24.9018 51.2411 24.9417 51.4212 24.8179 51.4212C24.6941 51.4212 24.4865 51.1093 24.5304 51.1972C24.5743 51.285 24.5304 51.2411 24.4465 51.2411C24.3627 51.2411 23.9114 50.9731 23.9114 51.061C23.9114 51.1488 23.54 50.9731 23.54 50.9731C23.54 50.9731 23.7477 50.9731 23.3763 51.1049C23.0049 51.2367 22.8412 50.9248 22.8412 50.9248V50.3448C22.8412 50.4854 22.4698 50.2614 22.4698 50.2614C22.346 50.3492 22.2621 50.1296 22.2222 50.1735C22.1823 50.2174 22.3859 50.3404 22.2222 50.3668L22.0585 50.3976L21.6032 49.9934V49.699C21.6032 49.699 21.5194 49.6331 21.4794 49.721C21.4395 49.8088 21.1919 49.721 21.1919 49.721L21.1081 49.8088L20.6528 49.0048L20.1576 49.0927V48.8247H20.0778C19.9939 48.8686 19.5427 48.7368 19.5427 48.7368L19.8302 48.649C19.8302 48.5611 19.5427 48.4776 19.5427 48.4776C19.5427 48.4776 19.5826 48.4908 19.5427 48.3722C19.5147 48.2755 19.5027 48.1745 19.5027 48.0734H19.3789C19.3789 48.0734 18.9676 48.0295 18.9676 47.8933C18.9676 47.7571 19.0076 47.4452 18.9676 47.5374C18.9277 47.6297 18.9676 48.1613 18.8039 48.0734C18.732 48.0339 18.5962 47.8494 18.4645 47.6517C18.3007 47.4012 18.145 47.1376 18.145 47.1376L18.4764 47.0058L18.3526 46.874C18.3207 46.8784 18.2927 46.8916 18.2688 46.918C18.2288 46.9619 18.145 46.9267 18.145 46.9267C18.145 46.9267 18.145 46.918 18.1051 46.918C18.0611 46.9267 18.0212 46.9399 17.9813 46.9619L17.8974 46.918C17.8734 46.918 17.8575 46.9004 17.8575 46.874V46.729L17.8974 46.5182C17.8974 46.5182 17.9373 46.461 17.8575 46.5094L17.7736 46.5621L17.7337 46.5182L17.5699 46.4742L17.53 46.5621C17.53 46.5621 17.53 46.4303 17.4901 46.4303C17.4501 46.4303 17.3663 46.3424 17.3663 46.3424C17.3663 46.3161 17.3823 46.2985 17.4062 46.2985C17.4302 46.2985 17.4461 46.2809 17.4461 46.2545L17.3623 46.2458C17.3623 46.2458 17.4461 46.2062 17.3224 46.2062H17.1986L17.1147 46.0744V46.0173C17.0668 46.0524 17.0069 46.0744 16.951 46.0744V45.9294L16.8671 45.5384L16.7433 45.1825H16.352L16.2681 45.1386C16.2681 45.1386 16.1842 45.4066 16.1842 45.1825C16.1842 44.9585 16.2681 44.8706 16.2681 44.8706C16.2681 44.8706 16.2681 44.7827 16.1044 44.7388C15.9406 44.6949 15.6931 44.607 15.6931 44.607L15.8168 44.5191L15.9406 44.3873L15.8168 44.2995L15.5293 44.2116L15.6132 44.1237C15.6132 44.1237 15.4894 44.0798 15.5293 44.0578C15.5693 44.0359 15.5693 43.9436 15.5693 43.9436C15.5972 43.9085 15.6132 43.8601 15.6092 43.8118C15.6092 43.7239 15.6931 43.8118 15.6092 43.7239C15.5253 43.6361 15.2378 43.5921 15.2378 43.5921L15.3217 43.3681V43.1001C15.3217 43.1001 15.0741 42.7442 15.0741 42.8321C15.0741 42.9199 15.4455 42.7003 15.0741 42.9199C14.7027 43.1396 14.7027 43.0517 14.7027 42.7881V42.5201L14.7866 42.3883V42.1643C14.7027 42.1643 14.499 42.0764 14.499 42.0764L14.2914 41.5404H14.4152C14.4152 41.5404 14.539 41.4965 14.499 41.3603C14.4591 41.2241 14.2914 41.1494 14.2914 41.1494L14.2075 41.1801V41.0835L14.1676 40.9561L14.0438 40.9121H13.9639L13.7163 39.9588L13.4368 39.3964C13.345 39.392 12.7699 38.9043 12.7699 38.9043C12.8937 38.8165 12.8937 38.5485 12.8937 38.5485L12.9336 38.1926L12.7699 38.0125C12.7699 38.0125 12.73 37.6698 12.7699 37.7313C12.8098 37.7928 12.8538 37.8807 12.9336 37.6566C12.9816 37.5292 12.9975 37.3886 12.9736 37.2568L12.4385 37.2129L12.5223 36.9888C12.6781 36.9888 12.8298 36.958 12.9776 36.9009L12.8538 36.7691V36.5451L12.7619 36.4572L12.4425 36.3825C12.4425 36.3825 12.4225 36.2639 12.3506 36.2683C12.2787 36.2727 12.091 36.176 12.091 36.176V35.9651L12.4824 35.886L12.5263 35.763L12.5463 35.5521C12.3985 35.5258 12.2348 35.4818 12.2348 35.4818L12.6102 34.9019L12.4664 34.8624L12.3306 34.8272L12.2308 34.8009L12.2747 34.5416L12.091 34.1243L11.6997 33.9178L11.8594 33.7992C11.8594 33.7992 11.6478 33.6454 11.8594 33.6498C12.0711 33.6542 12.0271 33.5619 12.0271 33.5619L12.2627 33.4565C12.2627 33.4565 12.702 33.373 12.2627 33.2016C11.8235 33.0303 11.6997 32.8941 11.6997 32.9161C11.6997 32.938 12.0671 32.6788 12.0671 32.6788C12.0671 32.6788 12.3187 32.5207 12.091 32.4196C11.8634 32.3186 11.4201 32.3098 11.6198 32.2219C11.8195 32.134 12.1909 32.0022 12.1909 32.0022L12.087 31.9363L12.115 31.8177L12.1949 31.2993C12.1949 31.2993 12.0671 31.3388 12.0671 31.2905C12.0671 31.2422 12.0152 30.8819 12.0152 30.8819L12.0271 30.5348C12.0271 30.5348 12.8897 30.0911 12.6661 29.9988C12.4425 29.9066 12.0271 29.331 12.0271 29.331C11.9433 29.107 11.9433 29.107 11.9433 29.0191C11.9433 28.9312 12.083 28.8434 12.083 28.8434C12.083 28.8434 12.2747 28.7072 12.107 28.6632C11.9393 28.6193 11.8994 28.6632 11.9433 28.6193C11.9792 28.5841 12.0192 28.549 12.0591 28.5182L12.1909 28.3074H12.4385L12.6062 27.9515L12.73 27.9076C12.7859 27.8329 12.8258 27.7406 12.8418 27.644C12.8538 27.5078 12.4824 27.5078 12.4824 27.5078L12.6062 27.1958L12.7699 26.9278L12.6381 26.2161L12.9376 26.0096C12.9057 25.9701 12.8857 25.9173 12.8857 25.8602C12.8857 25.7724 12.8458 25.8163 12.8857 25.6801C12.9256 25.5439 12.9696 25.3682 12.9696 25.3682L13.4128 25.2012L13.6524 25.0343L13.7163 24.8761V24.7443L13.4288 23.9403L13.6405 23.8392L13.6285 23.7162L13.6524 23.5361L14.0438 23.3604L14.2514 23.0484V22.9606C14.2514 22.8727 14.2514 22.9166 14.2115 22.6486C14.1876 22.4992 14.1756 22.3543 14.1716 22.2049L14.5829 21.9369L14.7067 22.2049C14.7067 22.2049 15.0381 22.2488 15.0381 22.2049C15.0262 22.117 15.0182 22.0248 15.0262 21.9369C15.0381 21.8051 14.7506 21.045 14.7506 21.045C14.7506 21.045 14.7386 21.0889 14.8465 21.045C14.9543 21.0011 15.4495 20.6891 15.4495 20.6891V20.3333C15.4495 20.3333 16.0245 20.509 15.9846 20.4651C15.9446 20.4211 15.737 20.4211 15.717 20.3289C15.697 20.2366 16.1523 19.9291 16.1523 19.9291V19.5293C16.1523 19.5293 16.3599 19.4853 16.3599 19.2613C16.3599 19.0372 16.1124 19.5732 16.3599 19.6171L16.6075 19.6611L16.5716 19.2042L16.6075 18.945L16.939 18.7648C17.8055 18.7648 17.3104 18.8527 17.3104 18.8527L17.1866 17.7368L18.0132 18.2288V17.293H18.2967C18.3247 17.2095 18.3686 17.1349 18.4245 17.069L18.5084 16.9811L18.9636 16.6692C18.9636 16.6692 18.9237 17.069 19.1074 16.6692L19.4588 15.9135H19.97C20.6129 15.8256 20.9403 15.9135 20.9403 15.9135L20.3653 15.4654C20.3653 15.4654 20.4052 15.3775 20.573 15.3335C20.7407 15.2896 20.9044 15.0216 20.9044 15.0216L21.0282 14.8854H21.775L22.0265 14.5515L22.2661 14.2176H23.3204L23.6279 13.1939C23.544 13.5059 24.3866 13.2994 24.3866 13.2994L24.9257 13.1939L25.8202 12.8029L25.6964 12.5745C25.6964 12.5745 26.0758 12.6711 26.0998 12.7546C26.1237 12.8381 26.2715 13.0578 26.2715 13.0578L26.4192 12.8073C26.4113 12.7941 26.7307 12.4558 26.7307 12.4558H27.2778C27.2778 12.4558 26.3953 12.9567 27.2299 12.8073C28.0645 12.6579 27.3457 12.4558 27.5374 12.513C27.7291 12.5701 28.3241 12.1263 28.3241 12.1263L28.4359 12.078H28.7394L28.9271 12.3284L29.3943 11.8452C29.3943 11.8452 29.4263 11.9155 29.6539 12.0868C29.8815 12.2581 30.9477 12.0868 30.9477 12.0868L31.3271 11.6343V11.8452L31.7025 11.9067C31.7025 11.9067 31.7504 12.4207 31.8702 12.4075C31.99 12.3943 32.9125 12.0297 32.9125 12.0297L33.2 12.1395L33.4076 11.8452H34.1185L34.0306 12.2669L34.2982 11.9638L34.7973 12.0341L34.993 12.2669L35.2246 12.1439C35.2246 12.1439 35.4842 11.8232 35.5121 12.0824L35.5401 12.3416C35.5401 12.3416 35.3844 12.1879 35.8755 12.2625C36.3667 12.3372 36.818 12.4295 36.818 12.4295C36.818 12.4295 36.4226 12.7195 36.7661 12.7985C37.1095 12.8776 37.7444 12.5964 37.7444 12.5964L37.7644 12.9875C37.7644 12.9875 37.7205 12.8161 37.992 12.8688C38.2636 12.9216 38.8147 12.7985 38.8147 12.7985V13.172C38.8147 13.172 38.8666 13.027 38.8746 13.3521C38.8826 13.6772 38.7148 13.8134 38.8826 13.6772C39.0503 13.541 39.2819 13.2555 39.2819 13.2555L39.5814 13.0534C39.5814 13.0534 39.5574 13.295 39.5494 13.3521C39.5415 13.4092 39.7451 13.5015 39.7451 13.5015C39.7451 13.5015 40.0247 13.6025 40.0087 13.5981C39.9927 13.5937 40.0406 13.4751 40.1205 13.3565C40.2004 13.2379 40.408 13.1939 40.408 13.1939L40.5877 13.418V13.7212C40.5877 13.7212 40.7794 13.686 40.6955 13.932C40.6117 14.1781 40.6356 14.4461 40.7275 14.4197C40.8193 14.3934 40.6556 14.1297 40.8193 14.0858C40.9831 14.0419 41.3145 14.0419 41.3145 14.0419C41.3145 14.0419 41.9734 12.6579 41.7258 14.0419C41.4782 15.4258 41.9335 14.8898 41.9335 14.8898L42.7601 14.3538V15.2633C42.7601 15.3775 43.1315 15.1578 43.1315 15.1578L43.435 15.6675L43.5029 15.7817L43.7904 15.6015L43.9142 15.9574C43.9142 15.9574 43.6666 16.2122 43.9142 16.1288C44.1618 16.0453 44.5731 15.6455 44.5731 15.7773V16.3221C44.637 16.3221 44.6969 16.3528 44.7368 16.4055C44.8207 16.4934 44.9844 16.4934 44.9844 16.4934L45.6034 16.8932C45.6034 16.8932 45.3957 17.1612 45.3957 17.337V17.6489C45.3957 17.6489 45.6034 17.337 46.1385 17.6928L46.6736 18.0487C46.6736 18.0487 46.3022 18.5583 46.6736 18.4836L47.045 18.4046C47.045 18.4046 46.3861 19.3096 47.045 19.3008L47.7039 19.2964C47.7039 19.2964 47.5402 19.8632 47.7039 19.85L47.8676 19.8324L48.1991 20.0565L48.5305 20.5925C48.5305 20.5925 47.2926 20.1004 48.3668 20.7287L49.441 21.3526L49.0696 21.7084C49.0696 21.7084 48.862 22.2444 49.2334 22.2444H49.6048V22.5827L49.8923 22.7365C49.8923 22.7365 49.6447 23.2022 49.8923 23.1934L50.1399 23.1846L50.2157 23.6196C50.2157 23.6196 50.8946 23.1626 50.4553 23.8392L50.0161 24.5202L50.675 24.652V24.9244C50.675 24.9244 50.3875 25.4956 50.675 25.5615L50.9625 25.6318C50.9625 25.6318 50.4274 26.8619 50.9625 26.8487L51.4976 26.8356L51.7053 27.2354L51.4577 27.9471C51.4577 27.9471 52.2843 27.767 52.0766 28.2151C51.869 28.6632 52.1605 28.527 51.869 28.6588C51.5775 28.7906 51.25 28.4787 51.5815 28.7906C51.9129 29.1026 52.3242 28.4348 51.9129 29.1026C51.5016 29.7704 52.1126 29.9593 52.1126 29.9593L51.893 30.0559L52.1126 30.6974C52.1126 30.6974 51.4617 30.6051 51.893 31.1455C52.3242 31.6859 52.5319 31.2861 52.3242 31.6903L52.1166 32.0901L51.889 32.2351L52.4041 32.5251C52.0367 32.938 51.9129 32.5822 52.0367 32.938C52.1605 33.2939 52.3242 32.982 52.1605 33.2939C51.9968 33.6058 52.1206 33.0698 51.9968 33.6058C51.873 34.1418 52.3282 33.9178 51.873 34.1418L51.4177 34.3659L51.893 35.0117L51.6414 35.2358L52.1206 35.7982L51.6254 36.0178C51.6254 36.2419 52.4041 36.6066 52.4081 36.734C52.4121 36.8614 52.1525 37.0854 52.1525 37.0854L52.0447 37.0591L51.5455 36.9536H51.2141V37.7137C50.9266 37.9378 50.8427 37.9861 50.8427 37.9861L51.29 38.7242L50.8866 38.9131L50.1439 38.6012L50.4833 39.1943C50.4314 39.3569 50.3994 40.3014 50.3994 40.3014L50.1319 40.6002C50.1319 40.6002 50.1439 40.6046 50.1439 40.7847C50.1439 40.9648 50.5472 41.6942 50.5472 41.6942C50.1838 41.6766 49.5089 41.6942 49.5089 41.6942C49.5648 41.9885 49.8124 41.8567 49.5648 41.9885C49.3172 42.1203 48.5465 42.3839 48.7062 42.3664C48.866 42.3488 49.1894 42.5245 49.2334 42.5465C49.2773 42.5685 49.2733 42.7354 49.2733 42.7354C48.9898 43.1045 48.9498 43.0166 48.9898 43.1045C49.0297 43.1923 48.4307 43.2055 48.4307 43.2055C48.4307 43.2055 48.8221 43.3285 48.4507 43.4603C48.0793 43.5921 47.9555 43.7723 48.0394 43.8601C48.1232 43.948 48.1991 44.2511 48.1991 44.2511L47.3804 44.8574L47.8756 45.3231H47.0131L46.6377 45.969V46.237C46.6377 46.461 46.3502 46.5489 46.3502 46.5489L45.815 46.5928C45.815 46.7246 45.7312 46.461 45.815 46.7246C45.8749 46.896 45.9029 47.0761 45.8989 47.2606V47.3924C45.6952 47.4232 45.4876 47.4364 45.2799 47.4364C45.2799 47.4364 44.7448 47.1684 44.7448 47.4364V47.8362L44.621 47.924L44.2736 48.0031C44.2736 48.0031 44.1738 47.7879 44.2736 48.1921C44.3734 48.5962 43.9621 48.2799 43.9621 48.504C43.9621 48.728 44.2337 48.7588 43.7465 48.7412C43.2593 48.7237 43.2194 49.1718 43.2194 49.1718L43.1794 49.8396L42.4766 49.6639C42.4766 49.6639 42.229 49.1279 42.3129 49.6639C42.3967 50.1999 41.4064 49.8 41.4064 49.8L41.031 50.604L40.3321 50.5381L39.9608 50.7622L39.6932 51.3114L39.9608 51.6892L39.4856 51.5355L39.2579 51.4037L39.1022 51.2235L38.9425 51.2455C38.9425 51.2455 39.1222 51.5355 38.9425 51.5355H37.6486L37.6925 51.6848C37.6925 51.6848 38.2276 51.8474 37.7325 51.8474C37.2373 51.8474 37.2373 51.6673 37.2373 51.8474V52.0275L37.0696 52.0715L36.6702 51.7288L36.5384 52.2033H36.1191L35.8236 52.3966L35.7557 51.6673C35.7557 51.6673 35.5481 51.9792 35.5481 52.1154C35.5481 52.2516 35.0569 52.3966 35.0569 52.3966L35.1368 52.0715C33.8549 51.0082 34.0626 50.9643 33.5235 49.6375C32.9843 48.3107 34.0745 45.5736 34.0745 45.5736C34.0745 45.5736 34.6815 46.0481 36.9538 46.7159C39.226 47.3837 39.8729 45.7844 39.8729 45.7844L39.9608 44.3083" fill="white"/>
<path d="M38.8586 44.2467C40.1964 44.5719 40.6117 44.0183 40.6117 44.0183C40.6117 44.0183 41.027 43.6097 41.023 43.1484C41.019 42.6871 40.6756 42.4454 40.6756 42.4454C40.6756 42.4454 41.0669 42.3136 41.3465 41.4877C41.626 40.6617 41.1668 40.5826 41.1668 40.5826L40.9312 40.3937L40.7794 40.0862C40.5318 39.8182 41.2346 39.5502 41.2346 39.5502C42.5125 39.1943 41.9574 38.1443 41.9574 38.1443L40.3481 35.6488C40.3481 35.6488 39.7691 34.5768 40.4719 33.1973C41.1747 31.8177 41.023 30.8907 41.023 30.8907C40.1724 26.4445 36.798 24.2786 36.798 24.2786L37.8483 25.7284L38.012 26.8883L37.8043 27.4682V27.7802L37.3611 28.4611C37.3611 28.4611 37.1854 28.8478 36.9378 28.404C36.6902 27.9603 36.3188 28.5358 36.3188 28.5358C36.3188 28.5358 36.4825 28.7599 36.4825 28.8038C36.4825 28.8478 36.1112 29.2476 36.1112 29.2476L35.4522 29.2036L34.5458 29.8275L34.2982 29.9154L33.7631 30.0472C33.7631 30.0472 34.1744 31.6508 33.2679 31.1192V31.33C33.2679 31.33 33.3917 31.6991 33.4755 31.6991C33.5594 31.6991 33.8469 31.787 33.8469 31.787L34.0546 32.0989V32.547C34.0546 32.547 34.0626 32.4811 33.9348 32.6481C33.807 32.815 33.7351 32.9249 33.7351 32.9249C33.7351 32.9249 33.6832 33.083 33.7231 33.1709C33.7631 33.2588 34.1504 33.5927 34.1504 33.5927H33.7032L33.9148 34.1155L33.6552 34.0584L33.4955 34.1155C33.4955 34.1155 33.4316 33.395 33.2679 34.3088C33.1041 35.2226 33.1002 34.9678 33.1002 34.9678L33.1041 34.8624L32.8965 34.7745V35.2446C32.8965 35.3105 33.1441 35.1787 32.8965 35.3105C32.6489 35.4423 32.4852 35.3588 32.4852 35.3588C32.4852 35.3588 32.569 35.4028 32.4852 35.7806C32.4013 36.1584 32.2296 35.9739 32.2296 35.9739C32.2296 35.9739 32.2775 35.7147 32.1537 35.8509C32.0299 35.9871 31.8702 36.1453 31.8702 36.1453L31.6186 36.1628C31.6186 36.1628 31.2872 35.7147 31.4948 35.7147C31.7025 35.7147 31.5348 35.7586 31.7025 35.7147C31.8702 35.6708 31.9501 35.4467 31.9501 35.4467L31.9541 35.2446C31.9541 35.2446 31.6226 35.1304 31.7065 35.0205C31.7903 34.9107 31.7464 34.6866 31.7464 34.6866L31.4309 34.8536L31.2632 34.7965C31.2632 34.7965 31.3551 35.0469 31.2632 35.1128C31.1953 35.1611 31.1115 35.1611 31.0436 35.1128C31.0036 35.0908 30.8159 34.6822 30.804 34.7965C30.792 34.9107 30.9996 35.1787 30.796 35.1787C30.5923 35.1787 30.6722 34.9546 30.5883 35.1787C30.5045 35.4028 30.4565 35.4072 30.193 35.271C29.9294 35.1348 29.8615 35.2226 29.8535 35.2446C29.8456 35.2666 29.8256 35.1392 29.7737 35.271C29.7218 35.4028 29.554 35.4028 29.554 35.4028L29.3544 35.1128C29.3544 35.1128 29.3624 34.8536 29.3544 34.9722C29.3464 35.0908 29.2625 35.3149 29.2625 35.4028C29.2625 35.4906 28.9311 35.3149 29.2625 35.4906C29.594 35.6664 29.7577 35.5346 29.7577 35.6708C29.7577 35.807 29.6659 35.8729 29.6499 35.9739C29.6339 36.075 29.3025 35.8948 29.3025 35.8948L29.6339 36.3869L29.6619 36.6769L29.4302 37.4589L29.8016 37.7269L29.6778 37.9949L29.4302 38.1267L29.594 38.4826L29.2226 38.0344L29.2625 37.7664L29.1787 37.3666V37.1865C29.1787 37.1865 29.2625 37.0986 29.2625 37.0064V36.7823V36.6725L29.0149 36.6066C29.0149 36.6066 28.8911 36.8218 28.9111 36.9141C28.9311 37.0064 29.0149 36.9624 28.9311 37.0064C28.8472 37.0503 28.7673 36.8262 28.7234 37.0064C28.6995 37.0986 28.6875 37.1909 28.6875 37.2875C28.6875 37.2875 28.7314 37.3842 28.6875 37.4193C28.6436 37.4545 28.7673 37.5907 28.7673 37.5907V37.6346C28.7673 37.7664 28.5597 37.7225 28.5597 37.7225C28.5597 37.7225 28.4359 37.6346 28.4998 37.5907C28.5637 37.5468 28.5597 37.1426 28.5597 37.1426L28.4798 36.9361L28.4758 36.7384L28.2282 36.4264C28.2282 36.4264 28.1883 36.4264 28.2682 36.3825C28.3201 36.3517 28.364 36.3078 28.392 36.2507L28.0006 36.3693C28.0206 36.1584 27.9407 35.8465 27.9407 35.8465L27.5693 35.7147C27.5693 35.7147 26.9504 33.887 25.1334 34.199C25.1334 34.199 24.183 34.3308 24.2668 36.1628C24.3507 37.9949 25.2172 38.8384 25.9999 39.4623C26.2475 39.638 27.1181 39.783 27.773 39.9368L27.5773 40.029C27.5773 40.029 27.9008 40.196 27.8609 40.2311C27.8209 40.2663 28.0046 40.4464 28.0046 40.4464V40.6002C27.9846 40.7144 28.3161 41.3383 28.3161 41.3383L28.0885 41.8523C28.1484 42.0061 28.6875 41.9182 28.6875 41.9182L28.8512 42.1423C28.8512 42.1423 28.9351 42.2653 28.9111 42.3356C28.8911 42.3971 28.8552 42.4542 28.8073 42.4982L28.7673 42.5421C28.7673 42.5421 28.6835 42.586 28.7673 42.586H28.975C28.975 42.7662 29.2625 43.166 29.2625 43.166C29.2625 43.166 29.0988 43.434 29.0549 43.5218C29.0109 43.6097 29.0149 43.4779 29.0149 43.6097C29.0149 43.7415 29.1387 43.6976 29.1387 43.7898C29.1387 43.8821 29.2226 43.7459 29.2625 43.8777C29.3025 44.0095 29.1787 44.0095 29.1387 44.1018C29.0988 44.194 29.0988 43.8777 29.0988 44.1896C29.1028 44.3917 29.1307 44.5938 29.1867 44.7915C29.1867 44.7915 28.9351 44.8838 28.9151 44.8706C28.8951 44.8574 28.9351 44.897 28.9151 44.9673C28.8951 45.0376 29.1827 44.9189 28.9151 45.1123C28.6475 45.3056 28.5477 45.3275 28.5477 45.3275C28.4798 45.3495 28.8592 45.5384 28.8592 45.5384L28.8153 45.8899H28.5837L28.404 45.6658C28.404 45.6658 28.4519 45.4418 28.3441 45.7537L28.2362 46.0656C28.2362 46.0656 28.1963 46.0656 28.1963 46.1974V46.3292L27.8648 45.9514C27.9048 46.07 27.9048 45.9602 27.8648 46.1052C27.8249 46.2502 27.9048 46.2502 27.8648 46.338C27.8249 46.4259 27.8249 46.606 27.8249 46.606C27.8768 46.6104 27.9247 46.6412 27.9487 46.6939C27.9886 46.7818 28.0326 46.7818 28.1963 47.0058C28.2722 47.1025 28.3441 47.2079 28.404 47.3178C28.404 47.3178 28.0605 47.2299 28.0046 47.3178C27.9487 47.4056 27.9926 47.1376 27.9487 47.4056C27.9048 47.6736 28.1044 47.7922 28.0685 47.845C28.0326 47.8977 28.0326 47.7615 28.0326 47.8977C28.0326 48.0339 28.0645 47.9241 28.0685 48.0471C28.0725 48.1701 28.1564 48.1218 28.0725 48.1657C27.9886 48.2096 27.7011 48.0339 27.6612 48.0778C27.6213 48.1218 27.6452 48.0339 27.6332 48.2096C27.6213 48.3854 27.785 48.2711 27.8688 48.5523L27.9527 48.8335H27.8688C27.8688 48.8335 27.6612 48.6534 27.5813 48.9653L27.4975 49.2772L27.7171 49.4618C27.7171 49.4618 27.8688 49.7561 27.8688 49.7825C27.8928 49.8528 27.9208 49.9231 27.9527 49.989H28.1763C28.1763 49.989 28.2402 50.1691 28.1604 50.213C28.0805 50.257 27.749 50.0812 27.749 50.0812C27.749 50.0812 27.6652 49.9011 27.5853 49.9494C27.5054 49.9978 27.5015 50.1252 27.5015 50.3053C27.5015 50.4854 27.8728 50.3932 27.749 50.4854C27.6692 50.5425 27.6213 50.648 27.6252 50.7534V50.7974C27.6252 50.7974 27.9966 50.7534 27.5214 50.7974C27.0462 50.8413 27.0063 51.1093 27.0063 51.1972C27.0063 51.285 26.7188 51.2367 26.8625 51.3509C26.8386 51.4827 26.7707 51.597 26.6708 51.6673C26.5111 51.7771 26.0958 51.4652 26.0958 51.597C26.0958 51.7288 25.8881 51.7288 25.8881 51.6409C25.8881 51.553 25.6405 51.2411 25.6405 51.2411C25.6405 51.2411 25.5886 51.5706 25.5327 51.5838C25.4768 51.597 25.353 51.285 25.3131 51.285C25.2731 51.285 24.8578 51.1532 24.9018 51.2411C24.9018 51.2411 24.9417 51.4212 24.8179 51.4212C24.6941 51.4212 24.4865 51.1093 24.5304 51.1972C24.5743 51.285 24.5304 51.2411 24.4465 51.2411C24.3627 51.2411 23.9114 50.9731 23.9114 51.061C23.9114 51.1488 23.54 50.9731 23.54 50.9731C23.54 50.9731 23.7477 50.9731 23.3763 51.1049C23.0049 51.2367 22.8412 50.9248 22.8412 50.9248V50.3448C22.8412 50.4854 22.4698 50.2614 22.4698 50.2614C22.346 50.3492 22.2621 50.1296 22.2222 50.1735C22.1823 50.2174 22.3859 50.3404 22.2222 50.3668L22.0585 50.3976L21.6032 49.9934V49.699C21.6032 49.699 21.5194 49.6331 21.4794 49.721C21.4395 49.8088 21.1919 49.721 21.1919 49.721L21.1081 49.8088L20.6528 49.0048L20.1576 49.0927V48.8247H20.0778C19.9939 48.8686 19.5427 48.7368 19.5427 48.7368L19.8302 48.649C19.8302 48.5611 19.5427 48.4776 19.5427 48.4776C19.5427 48.4776 19.5826 48.4908 19.5427 48.3722C19.5147 48.2755 19.5027 48.1745 19.5027 48.0734H19.3789C19.3789 48.0734 18.9676 48.0295 18.9676 47.8933C18.9676 47.7571 19.0076 47.4452 18.9676 47.5374C18.9277 47.6297 18.9676 48.1613 18.8039 48.0734C18.732 48.0339 18.5962 47.8494 18.4645 47.6517C18.3007 47.4012 18.145 47.1376 18.145 47.1376L18.4764 47.0058L18.3526 46.874C18.3207 46.8784 18.2927 46.8916 18.2688 46.918C18.2288 46.9619 18.145 46.9267 18.145 46.9267C18.145 46.9267 18.145 46.918 18.1051 46.918C18.0611 46.9267 18.0212 46.9399 17.9813 46.9619L17.8974 46.918C17.8734 46.918 17.8575 46.9004 17.8575 46.874V46.729L17.8974 46.5182C17.8974 46.5182 17.9373 46.461 17.8575 46.5094L17.7736 46.5621L17.7337 46.5182L17.5699 46.4742L17.53 46.5621C17.53 46.5621 17.53 46.4303 17.4901 46.4303C17.4501 46.4303 17.3663 46.3424 17.3663 46.3424C17.3663 46.3161 17.3823 46.2985 17.4062 46.2985C17.4302 46.2985 17.4461 46.2809 17.4461 46.2545L17.3623 46.2458C17.3623 46.2458 17.4461 46.2062 17.3224 46.2062H17.1986L17.1147 46.0744V46.0173C17.0668 46.0524 17.0069 46.0744 16.951 46.0744V45.9294L16.8671 45.5384L16.7433 45.1825H16.352L16.2681 45.1386C16.2681 45.1386 16.1842 45.4066 16.1842 45.1825C16.1842 44.9585 16.2681 44.8706 16.2681 44.8706C16.2681 44.8706 16.2681 44.7827 16.1044 44.7388C15.9406 44.6949 15.6931 44.607 15.6931 44.607L15.8168 44.5191L15.9406 44.3873L15.8168 44.2995L15.5293 44.2116L15.6132 44.1237C15.6132 44.1237 15.4894 44.0798 15.5293 44.0578C15.5693 44.0359 15.5693 43.9436 15.5693 43.9436C15.5972 43.9085 15.6132 43.8601 15.6092 43.8118C15.6092 43.7239 15.6931 43.8118 15.6092 43.7239C15.5253 43.6361 15.2378 43.5921 15.2378 43.5921L15.3217 43.3681V43.1001C15.3217 43.1001 15.0741 42.7442 15.0741 42.8321C15.0741 42.9199 15.4455 42.7003 15.0741 42.9199C14.7027 43.1396 14.7027 43.0517 14.7027 42.7881V42.5201L14.7866 42.3883V42.1643C14.7027 42.1643 14.499 42.0764 14.499 42.0764L14.2914 41.5404H14.4152C14.4152 41.5404 14.539 41.4965 14.499 41.3603C14.4591 41.2241 14.2914 41.1494 14.2914 41.1494L14.2075 41.1801V41.0835L14.1676 40.9561L14.0438 40.9121H13.9639L13.7163 39.9588L13.4368 39.3964C13.345 39.392 12.7699 38.9043 12.7699 38.9043C12.8937 38.8165 12.8937 38.5485 12.8937 38.5485L12.9336 38.1926L12.7699 38.0125C12.7699 38.0125 12.73 37.6698 12.7699 37.7313C12.8098 37.7928 12.8538 37.8807 12.9336 37.6566C12.9816 37.5292 12.9975 37.3886 12.9736 37.2568L12.4385 37.2129L12.5223 36.9888C12.6781 36.9888 12.8298 36.958 12.9776 36.9009L12.8538 36.7691V36.5451L12.7619 36.4572L12.4425 36.3825C12.4425 36.3825 12.4225 36.2639 12.3506 36.2683C12.2787 36.2727 12.091 36.176 12.091 36.176V35.9651L12.4824 35.886L12.5263 35.763L12.5463 35.5521C12.3985 35.5258 12.2348 35.4818 12.2348 35.4818L12.6102 34.9019L12.4664 34.8624L12.3306 34.8272L12.2308 34.8009L12.2747 34.5416L12.091 34.1243L11.6997 33.9178L11.8594 33.7992C11.8594 33.7992 11.6478 33.6454 11.8594 33.6498C12.0711 33.6542 12.0271 33.5619 12.0271 33.5619L12.2627 33.4565C12.2627 33.4565 12.702 33.373 12.2627 33.2016C11.8235 33.0303 11.6997 32.8941 11.6997 32.9161C11.6997 32.938 12.0671 32.6788 12.0671 32.6788C12.0671 32.6788 12.3187 32.5207 12.091 32.4196C11.8634 32.3186 11.4201 32.3098 11.6198 32.2219C11.8195 32.134 12.1909 32.0022 12.1909 32.0022L12.087 31.9363L12.115 31.8177L12.1949 31.2993C12.1949 31.2993 12.0671 31.3388 12.0671 31.2905C12.0671 31.2422 12.0152 30.8819 12.0152 30.8819L12.0271 30.5348C12.0271 30.5348 12.8897 30.0911 12.6661 29.9988C12.4425 29.9066 12.0271 29.331 12.0271 29.331C11.9433 29.107 11.9433 29.107 11.9433 29.0191C11.9433 28.9312 12.083 28.8434 12.083 28.8434C12.083 28.8434 12.2747 28.7072 12.107 28.6632C11.9393 28.6193 11.8994 28.6632 11.9433 28.6193C11.9792 28.5841 12.0192 28.549 12.0591 28.5182L12.1909 28.3074H12.4385L12.6062 27.9515L12.73 27.9076C12.7859 27.8329 12.8258 27.7406 12.8418 27.644C12.8538 27.5078 12.4824 27.5078 12.4824 27.5078L12.6062 27.1958L12.7699 26.9278L12.6381 26.2161L12.9376 26.0096C12.9057 25.9701 12.8857 25.9173 12.8857 25.8602C12.8857 25.7724 12.8458 25.8163 12.8857 25.6801C12.9256 25.5439 12.9696 25.3682 12.9696 25.3682L13.4128 25.2012L13.6524 25.0343L13.7163 24.8761V24.7443L13.4288 23.9403L13.6405 23.8392L13.6285 23.7162L13.6524 23.5361L14.0438 23.3604L14.2514 23.0484V22.9606C14.2514 22.8727 14.2514 22.9166 14.2115 22.6486C14.1876 22.4992 14.1756 22.3543 14.1716 22.2049L14.5829 21.9369L14.7067 22.2049C14.7067 22.2049 15.0381 22.2488 15.0381 22.2049C15.0262 22.117 15.0182 22.0248 15.0262 21.9369C15.0381 21.8051 14.7506 21.045 14.7506 21.045C14.7506 21.045 14.7386 21.0889 14.8465 21.045C14.9543 21.0011 15.4495 20.6891 15.4495 20.6891V20.3333C15.4495 20.3333 16.0245 20.509 15.9846 20.4651C15.9446 20.4211 15.737 20.4211 15.717 20.3289C15.697 20.2366 16.1523 19.9291 16.1523 19.9291V19.5293C16.1523 19.5293 16.3599 19.4853 16.3599 19.2613C16.3599 19.0372 16.1124 19.5732 16.3599 19.6171L16.6075 19.6611L16.5716 19.2042L16.6075 18.945L16.939 18.7648C17.8055 18.7648 17.3104 18.8527 17.3104 18.8527L17.1866 17.7368L18.0132 18.2288V17.293H18.2967C18.3247 17.2095 18.3686 17.1349 18.4245 17.069L18.5084 16.9811L18.9636 16.6692C18.9636 16.6692 18.9237 17.069 19.1074 16.6692L19.4588 15.9135H19.97C20.6129 15.8256 20.9403 15.9135 20.9403 15.9135L20.3653 15.4654C20.3653 15.4654 20.4052 15.3775 20.573 15.3335C20.7407 15.2896 20.9044 15.0216 20.9044 15.0216L21.0282 14.8854H21.775L22.0265 14.5515L22.2661 14.2176H23.3204L23.6279 13.1939C23.544 13.5059 24.3866 13.2994 24.3866 13.2994L24.9257 13.1939L25.8202 12.8029L25.6964 12.5745C25.6964 12.5745 26.0758 12.6711 26.0998 12.7546C26.1237 12.8381 26.2715 13.0578 26.2715 13.0578L26.4192 12.8073C26.4113 12.7941 26.7307 12.4558 26.7307 12.4558H27.2778C27.2778 12.4558 26.3953 12.9567 27.2299 12.8073C28.0645 12.6579 27.3457 12.4558 27.5374 12.513C27.7291 12.5701 28.3241 12.1263 28.3241 12.1263L28.4359 12.078H28.7394L28.9271 12.3284L29.3943 11.8452C29.3943 11.8452 29.4263 11.9155 29.6539 12.0868C29.8815 12.2581 30.9477 12.0868 30.9477 12.0868L31.3271 11.6343V11.8452L31.7025 11.9067C31.7025 11.9067 31.7504 12.4207 31.8702 12.4075C31.99 12.3943 32.9125 12.0297 32.9125 12.0297L33.2 12.1395L33.4076 11.8452H34.1185L34.0306 12.2669L34.2982 11.9638L34.7973 12.0341L34.993 12.2669L35.2246 12.1439C35.2246 12.1439 35.4842 11.8232 35.5121 12.0824L35.5401 12.3416C35.5401 12.3416 35.3844 12.1879 35.8755 12.2625C36.3667 12.3372 36.818 12.4295 36.818 12.4295C36.818 12.4295 36.4226 12.7195 36.7661 12.7985C37.1095 12.8776 37.7444 12.5964 37.7444 12.5964L37.7644 12.9875C37.7644 12.9875 37.7205 12.8161 37.992 12.8688C38.2636 12.9216 38.8147 12.7985 38.8147 12.7985V13.172C38.8147 13.172 38.8666 13.027 38.8746 13.3521C38.8826 13.6772 38.7148 13.8134 38.8826 13.6772C39.0503 13.541 39.2819 13.2555 39.2819 13.2555L39.5814 13.0534C39.5814 13.0534 39.5574 13.295 39.5494 13.3521C39.5415 13.4092 39.7451 13.5015 39.7451 13.5015C39.7451 13.5015 40.0247 13.6025 40.0087 13.5981C39.9927 13.5937 40.0406 13.4751 40.1205 13.3565C40.2004 13.2379 40.408 13.1939 40.408 13.1939L40.5877 13.418V13.7212C40.5877 13.7212 40.7794 13.686 40.6955 13.932C40.6117 14.1781 40.6356 14.4461 40.7275 14.4197C40.8193 14.3934 40.6556 14.1297 40.8193 14.0858C40.9831 14.0419 41.3145 14.0419 41.3145 14.0419C41.3145 14.0419 41.9734 12.6579 41.7258 14.0419C41.4782 15.4258 41.9335 14.8898 41.9335 14.8898L42.7601 14.3538V15.2633C42.7601 15.3775 43.1315 15.1578 43.1315 15.1578L43.435 15.6675L43.5029 15.7817L43.7904 15.6015L43.9142 15.9574C43.9142 15.9574 43.6666 16.2122 43.9142 16.1288C44.1618 16.0453 44.5731 15.6455 44.5731 15.7773V16.3221C44.637 16.3221 44.6969 16.3528 44.7368 16.4055C44.8207 16.4934 44.9844 16.4934 44.9844 16.4934L45.6034 16.8932C45.6034 16.8932 45.3957 17.1612 45.3957 17.337V17.6489C45.3957 17.6489 45.6034 17.337 46.1385 17.6928L46.6736 18.0487C46.6736 18.0487 46.3022 18.5583 46.6736 18.4836L47.045 18.4046C47.045 18.4046 46.3861 19.3096 47.045 19.3008L47.7039 19.2964C47.7039 19.2964 47.5402 19.8632 47.7039 19.85L47.8676 19.8324L48.1991 20.0565L48.5305 20.5925C48.5305 20.5925 47.2926 20.1004 48.3668 20.7287L49.441 21.3526L49.0696 21.7084C49.0696 21.7084 48.862 22.2444 49.2334 22.2444H49.6048V22.5827L49.8923 22.7365C49.8923 22.7365 49.6447 23.2022 49.8923 23.1934L50.1399 23.1846L50.2157 23.6196C50.2157 23.6196 50.8946 23.1626 50.4553 23.8392L50.0161 24.5202L50.675 24.652V24.9244C50.675 24.9244 50.3875 25.4956 50.675 25.5615L50.9625 25.6318C50.9625 25.6318 50.4274 26.8619 50.9625 26.8487L51.4976 26.8356L51.7053 27.2354L51.4577 27.9471C51.4577 27.9471 52.2843 27.767 52.0766 28.2151C51.869 28.6632 52.1605 28.527 51.869 28.6588C51.5775 28.7906 51.25 28.4787 51.5815 28.7906C51.9129 29.1026 52.3242 28.4348 51.9129 29.1026C51.5016 29.7704 52.1126 29.9593 52.1126 29.9593L51.893 30.0559L52.1126 30.6974C52.1126 30.6974 51.4617 30.6051 51.893 31.1455C52.3242 31.6859 52.5319 31.2861 52.3242 31.6903L52.1166 32.0901L51.889 32.2351L52.4041 32.5251C52.0367 32.938 51.9129 32.5822 52.0367 32.938C52.1605 33.2939 52.3242 32.982 52.1605 33.2939C51.9968 33.6058 52.1206 33.0698 51.9968 33.6058C51.873 34.1418 52.3282 33.9178 51.873 34.1418L51.4177 34.3659L51.893 35.0117L51.6414 35.2358L52.1206 35.7982L51.6254 36.0178C51.6254 36.2419 52.4041 36.6066 52.4081 36.734C52.4121 36.8614 52.1525 37.0854 52.1525 37.0854L52.0447 37.0591L51.5455 36.9536H51.2141V37.7137C50.9266 37.9378 50.8427 37.9861 50.8427 37.9861L51.29 38.7242L50.8866 38.9131L50.1439 38.6012L50.4833 39.1943C50.4314 39.3569 50.3994 40.3014 50.3994 40.3014L50.1319 40.6002C50.1319 40.6002 50.1439 40.6046 50.1439 40.7847C50.1439 40.9648 50.5472 41.6942 50.5472 41.6942C50.1838 41.6766 49.5089 41.6942 49.5089 41.6942C49.5648 41.9885 49.8124 41.8567 49.5648 41.9885C49.3172 42.1203 48.5465 42.3839 48.7062 42.3664C48.866 42.3488 49.1894 42.5245 49.2334 42.5465C49.2773 42.5685 49.2733 42.7354 49.2733 42.7354C48.9898 43.1045 48.9498 43.0166 48.9898 43.1045C49.0297 43.1923 48.4307 43.2055 48.4307 43.2055C48.4307 43.2055 48.8221 43.3285 48.4507 43.4603C48.0793 43.5921 47.9555 43.7723 48.0394 43.8601C48.1232 43.948 48.1991 44.2511 48.1991 44.2511L47.3804 44.8574L47.8756 45.3231H47.0131L46.6377 45.969V46.237C46.6377 46.461 46.3502 46.5489 46.3502 46.5489L45.815 46.5928C45.815 46.7246 45.7312 46.461 45.815 46.7246C45.8749 46.896 45.9029 47.0761 45.8989 47.2606V47.3924C45.6952 47.4232 45.4876 47.4364 45.2799 47.4364C45.2799 47.4364 44.7448 47.1684 44.7448 47.4364V47.8362L44.621 47.924L44.2736 48.0031C44.2736 48.0031 44.1738 47.7879 44.2736 48.1921C44.3734 48.5962 43.9621 48.2799 43.9621 48.504C43.9621 48.728 44.2337 48.7588 43.7465 48.7412C43.2593 48.7237 43.2194 49.1718 43.2194 49.1718L43.1794 49.8396L42.4766 49.6639C42.4766 49.6639 42.229 49.1279 42.3129 49.6639C42.3967 50.1999 41.4064 49.8 41.4064 49.8L41.031 50.604L40.3321 50.5381L39.9608 50.7622L39.6932 51.3114L39.9608 51.6892L39.4856 51.5355L39.2579 51.4037L39.1022 51.2235L38.9425 51.2455C38.9425 51.2455 39.1222 51.5355 38.9425 51.5355H37.6486L37.6925 51.6848C37.6925 51.6848 38.2276 51.8474 37.7325 51.8474C37.2373 51.8474 37.2373 51.6673 37.2373 51.8474V52.0275L37.0696 52.0715L36.6702 51.7288L36.5384 52.2033H36.1191L35.8236 52.3966L35.7557 51.6673C35.7557 51.6673 35.5481 51.9792 35.5481 52.1154C35.5481 52.2516 35.0569 52.3966 35.0569 52.3966L35.1368 52.0715C33.8549 51.0082 34.0626 50.9643 33.5235 49.6375C32.9843 48.3107 34.0745 45.5736 34.0745 45.5736C34.0745 45.5736 34.6815 46.0481 36.9538 46.7159C39.226 47.3837 39.8729 45.7844 39.8729 45.7844L39.9608 44.3083" stroke="white" stroke-width="2" stroke-miterlimit="10"/>
<path d="M39.6373 31.084L39.4696 31.765C39.4696 31.765 39.4256 31.8661 39.2619 31.9012C39.1102 31.932 38.8386 31.8968 38.7707 31.8617C38.4672 31.7167 37.5607 31.5322 37.5607 31.5322C37.5607 31.5322 36.802 31.2642 35.4682 31.8529C34.1344 32.4416 35.7997 31.3081 35.7997 31.3081C35.7997 31.3081 37.0775 30.4777 38.0839 30.7326C39.0902 30.9874 39.6373 31.084 39.6373 31.084Z" fill="white" stroke="white" stroke-miterlimit="10"/>
<path d="M40.9471 42.3839C40.7594 42.463 40.5638 42.5289 40.3681 42.5772C40.2683 42.6036 40.1684 42.6212 40.0726 42.6431C39.9767 42.6651 39.8729 42.6739 39.7731 42.6871C39.7212 42.6915 39.6733 42.6958 39.6213 42.7002C39.5694 42.7046 39.5215 42.709 39.4696 42.709C39.3698 42.709 39.2659 42.709 39.1661 42.7002C38.9624 42.6915 38.7628 42.6387 38.5751 42.5509C38.7707 42.586 38.9704 42.6036 39.1701 42.5992C39.3698 42.5992 39.5654 42.5816 39.7611 42.5596C39.9568 42.5377 40.1564 42.5113 40.3561 42.4806L40.9471 42.3839Z" fill="white"/>
<path d="M24.8778 35.0337C24.8738 35.0337 24.8698 35.0425 24.8658 35.0381C24.8698 35.0337 24.8738 35.0293 24.8778 35.0293L24.9018 35.0117C24.9178 35.0029 24.9337 34.9898 24.9497 34.981C24.9817 34.9634 25.0136 34.9458 25.0495 34.9283C25.1174 34.8975 25.1853 34.8711 25.2572 34.8492C25.401 34.8052 25.5487 34.7921 25.7005 34.8008C25.8482 34.814 25.996 34.858 26.1317 34.9327C26.2675 35.0073 26.3873 35.104 26.4951 35.2226C26.7068 35.4599 26.8545 35.7498 26.9743 36.0442C27.0023 36.1189 27.0303 36.1936 27.0542 36.2726L27.0902 36.3869C27.1021 36.4264 27.1141 36.466 27.1181 36.5099C27.1461 36.6812 27.1141 36.8482 27.0862 37.0064V36.9888C27.0862 36.9888 27.0862 36.9932 27.0902 36.9976C27.0902 37.002 27.0941 37.0064 27.0981 37.0107C27.1021 37.0195 27.1101 37.0283 27.1181 37.0327C27.1341 37.0503 27.1501 37.0635 27.166 37.0723C27.186 37.0854 27.202 37.0942 27.2219 37.103C27.2299 37.1074 27.2419 37.1118 27.2539 37.1162C27.2659 37.1206 27.2738 37.125 27.2898 37.1294C27.3337 37.1557 27.3737 37.1865 27.4096 37.2304C27.4416 37.2656 27.4735 37.3051 27.5055 37.349C27.6213 37.5116 27.7211 37.6829 27.813 37.8631V37.8587C27.8169 37.8675 27.8209 37.8763 27.8249 37.8894L27.8329 37.9158C27.8369 37.9334 27.8409 37.9509 27.8489 37.9641C27.8569 37.9993 27.8649 38.03 27.8729 38.0652C27.8848 38.1311 27.8928 38.2014 27.8968 38.2717C27.9008 38.342 27.8928 38.4123 27.8768 38.4825C27.8609 38.5528 27.8209 38.6143 27.769 38.6627C27.7131 38.7022 27.6492 38.7242 27.5853 38.7242C27.5214 38.7242 27.4615 38.7198 27.3976 38.7154C27.3337 38.711 27.2738 38.6978 27.2139 38.6759C27.186 38.6627 27.154 38.6495 27.1301 38.6319C27.1181 38.6231 27.1061 38.6144 27.0941 38.6012C27.0902 38.5968 27.0822 38.588 27.0782 38.5836L27.0702 38.5748C27.0662 38.5704 27.0622 38.5704 27.0622 38.5748C27.0662 38.5704 27.0702 38.5748 27.0742 38.5748L27.0822 38.5836C27.0862 38.588 27.0941 38.5968 27.0981 38.6012C27.1101 38.6144 27.1221 38.6231 27.1381 38.6275C27.166 38.6407 27.194 38.6539 27.2219 38.6627C27.2818 38.6803 27.3417 38.689 27.4016 38.6934C27.4615 38.6978 27.5254 38.6978 27.5853 38.6934C27.6412 38.689 27.6971 38.6671 27.7451 38.6275C27.789 38.588 27.8209 38.5309 27.8329 38.4694C27.8449 38.4079 27.8529 38.342 27.8489 38.2761C27.8449 38.2102 27.8369 38.1443 27.8209 38.0784C27.813 38.0476 27.805 38.0124 27.797 37.9817C27.793 37.9641 27.789 37.9509 27.781 37.9378L27.773 37.9158C27.773 37.9114 27.769 37.907 27.765 37.8982V37.8938C27.7171 37.806 27.6692 37.7225 27.6173 37.639C27.5654 37.5555 27.5134 37.4721 27.4575 37.3974C27.4296 37.3578 27.3976 37.3227 27.3657 37.2875C27.3377 37.2524 27.3018 37.226 27.2659 37.2041C27.2579 37.1997 27.2459 37.1953 27.2339 37.1909C27.2219 37.1865 27.21 37.1821 27.198 37.1777C27.174 37.1689 27.154 37.1557 27.1301 37.1425C27.1061 37.1294 27.0862 37.1118 27.0702 37.0898C27.0622 37.081 27.0502 37.0679 27.0422 37.0547C27.0382 37.0503 27.0342 37.0415 27.0303 37.0327C27.0263 37.0239 27.0223 37.0151 27.0183 37.0064V36.9976V36.9888C27.0462 36.8306 27.0702 36.6724 27.0462 36.5231C27.0422 36.4835 27.0303 36.4484 27.0223 36.4132L26.9863 36.299C26.9624 36.2243 26.9384 36.1496 26.9065 36.0749C26.7946 35.7806 26.6509 35.4994 26.4512 35.2709C26.3514 35.1567 26.2396 35.0601 26.1118 34.9854C25.984 34.9107 25.8442 34.8667 25.7005 34.8492C25.5567 34.8316 25.4089 34.8404 25.2692 34.8755C25.1973 34.8931 25.1294 34.9151 25.0615 34.9414C25.0256 34.9546 24.9936 34.9722 24.9617 34.9854C24.9457 34.9942 24.9297 35.0029 24.9138 35.0117L24.8778 35.0337C24.8738 35.0337 24.8698 35.0337 24.8698 35.0381L24.8778 35.0337Z" fill="white"/>
<path d="M26.2795 35.6664C26.1198 35.7235 25.968 35.807 25.8282 35.9168C25.6965 36.0179 25.5966 36.1628 25.5407 36.3298C25.5168 36.4133 25.5008 36.5011 25.5008 36.589C25.4968 36.6813 25.5048 36.7691 25.5168 36.857C25.5487 37.0415 25.5926 37.2217 25.6565 37.3974C25.5527 37.2392 25.4728 37.0635 25.4289 36.879C25.4169 36.8306 25.4089 36.7823 25.401 36.734C25.393 36.6857 25.389 36.6329 25.389 36.5846C25.389 36.4836 25.405 36.3825 25.4329 36.2859C25.4649 36.1892 25.5128 36.1013 25.5727 36.0223C25.6326 35.9476 25.7045 35.8817 25.7843 35.8289C25.9281 35.7323 26.0998 35.6752 26.2795 35.6664Z" fill="white"/>
</g>
<defs>
<linearGradient id="paint0_linear_1_21" x1="32" y1="0" x2="32" y2="64" gradientUnits="userSpaceOnUse">
<stop offset="0.208333" stop-color="#E83177"/>
<stop offset="0.75" stop-color="#EB663B"/>
<stop offset="1" stop-color="#ED873D"/>
</linearGradient>
<clipPath id="clip0_1_21">
<rect width="40.96" height="40.96" fill="white" transform="translate(11.52 11.52)"/>
</clipPath>
</defs>
</svg>
